<svg width="22" height="22" viewBox="0 0 22 22" fill="none" xmlns="http://www.w3.org/2000/svg">
<path d="M1 9.09924C1 7.97879 1.20808 6.93037 1.62425 5.95398C2.04575 4.97759 2.62732 4.11858 3.36895 3.37695C4.11591 2.62999 4.97759 2.04842 5.95398 1.63225C6.93571 1.21075 7.98413 1 9.09924 1C10.2144 1 11.2601 1.21075 12.2365 1.63225C13.2182 2.04842 14.0799 2.62999 14.8215 3.37695C15.5632 4.11858 16.1447 4.97759 16.5662 5.95398C16.9877 6.93037 17.1985 7.97879 17.1985 9.09924C17.1985 10.0383 17.0438 10.9346 16.7343 11.7883C16.4248 12.6367 15.998 13.4023 15.4538 14.0852L20.7039 19.3593C20.7999 19.4607 20.8719 19.5754 20.92 19.7035C20.9733 19.8315 21 19.9676 21 20.1116C21 20.3091 20.9546 20.4905 20.8639 20.6559C20.7786 20.8213 20.6559 20.952 20.4958 21.048C20.3357 21.1441 20.1517 21.1921 19.9436 21.1921C19.7995 21.1921 19.6608 21.1654 19.5274 21.112C19.394 21.0587 19.2766 20.9813 19.1753 20.88L13.9012 15.5978C13.2289 16.0994 12.4846 16.4915 11.6683 16.7743C10.8573 17.0518 10.0009 17.1905 9.09924 17.1905C7.98413 17.1905 6.93571 16.9824 5.95398 16.5662C4.97759 16.1447 4.11591 15.5632 3.36895 14.8215C2.62732 14.0746 2.04575 13.2129 1.62425 12.2365C1.20808 11.2601 1 10.2144 1 9.09924ZM2.4966 9.09924C2.4966 10.0063 2.66733 10.8599 3.0088 11.6603C3.35561 12.4552 3.83047 13.1569 4.43337 13.7651C5.03628 14.368 5.73523 14.8402 6.53021 15.1817C7.33053 15.5231 8.18687 15.6939 9.09924 15.6939C10.0063 15.6939 10.8573 15.5231 11.6523 15.1817C12.4526 14.8402 13.1542 14.368 13.7571 13.7651C14.3653 13.1569 14.8402 12.4552 15.1817 11.6603C15.5231 10.8599 15.6939 10.0063 15.6939 9.09924C15.6939 8.18688 15.5231 7.3332 15.1817 6.53822C14.8402 5.7379 14.3653 5.03628 13.7571 4.43337C13.1542 3.82513 12.4526 3.35027 11.6523 3.0088C10.8573 2.66733 10.0063 2.4966 9.09924 2.4966C8.18687 2.4966 7.33053 2.66733 6.53021 3.0088C5.73523 3.35027 5.03628 3.82513 4.43337 4.43337C3.83047 5.03628 3.35561 5.7379 3.0088 6.53822C2.66733 7.3332 2.4966 8.18688 2.4966 9.09924Z" fill="#96A9C0" stroke="#96A9C0"/>
</svg>
