<svg width="18" height="18" viewBox="0 0 18 18" fill="none" xmlns="http://www.w3.org/2000/svg">
<path d="M0.666748 7.41587C0.666748 6.48216 0.840151 5.60848 1.18696 4.79482C1.53821 3.98116 2.02285 3.26532 2.64087 2.6473C3.26334 2.02483 3.98141 1.54019 4.79507 1.19338C5.61317 0.84213 6.48685 0.666504 7.41611 0.666504C8.34538 0.666504 9.21684 0.84213 10.0305 1.19338C10.8486 1.54019 11.5667 2.02483 12.1847 2.6473C12.8027 3.26532 13.2874 3.98116 13.6386 4.79482C13.9899 5.60848 14.1655 6.48216 14.1655 7.41587C14.1655 8.19841 14.0365 8.94537 13.7787 9.65677C13.5208 10.3637 13.1651 11.0018 12.7116 11.5709L17.0867 15.966C17.1667 16.0504 17.2267 16.146 17.2667 16.2527C17.3112 16.3595 17.3334 16.4728 17.3334 16.5929C17.3334 16.7574 17.2956 16.9086 17.22 17.0464C17.1489 17.1842 17.0466 17.2932 16.9132 17.3732C16.7799 17.4532 16.6265 17.4932 16.4531 17.4932C16.333 17.4932 16.2174 17.471 16.1063 17.4265C15.9951 17.3821 15.8973 17.3176 15.8128 17.2331L11.4177 12.8314C10.8575 13.2493 10.2372 13.5761 9.55697 13.8118C8.88115 14.043 8.16753 14.1586 7.41611 14.1586C6.48685 14.1586 5.61317 13.9852 4.79507 13.6384C3.98141 13.2871 3.26334 12.8025 2.64087 12.1844C2.02285 11.562 1.53821 10.8439 1.18696 10.0303C0.840151 9.21659 0.666748 8.34513 0.666748 7.41587ZM1.91391 7.41587C1.91391 8.17173 2.05619 8.88313 2.34075 9.55006C2.62976 10.2125 3.02547 10.7972 3.52789 11.3041C4.03032 11.8065 4.61277 12.2 5.27526 12.4846C5.94219 12.7691 6.65581 12.9114 7.41611 12.9114C8.17197 12.9114 8.88115 12.7691 9.54363 12.4846C10.2106 12.2 10.7952 11.8065 11.2977 11.3041C11.8045 10.7972 12.2003 10.2125 12.4848 9.55006C12.7694 8.88313 12.9116 8.17173 12.9116 7.41587C12.9116 6.65557 12.7694 5.94417 12.4848 5.28168C12.2003 4.61475 11.8045 4.03007 11.2977 3.52765C10.7952 3.02078 10.2106 2.62507 9.54363 2.34051C8.88115 2.05595 8.17197 1.91367 7.41611 1.91367C6.65581 1.91367 5.94219 2.05595 5.27526 2.34051C4.61277 2.62507 4.03032 3.02078 3.52789 3.52765C3.02547 4.03007 2.62976 4.61475 2.34075 5.28168C2.05619 5.94417 1.91391 6.65557 1.91391 7.41587Z" fill="#737682"/>
</svg>
